<svg id="visual" viewBox="0 0 960 540" width="960" height="540" xmlns="http://www.w3.org/2000/svg" xmlns:xlink="http://www.w3.org/1999/xlink" version="1.1"><rect x="0" y="0" width="960" height="540" fill="#ffffff"></rect><path d="M475 540L502 432L420 324L422 216L395 108L482 0L960 0L960 108L960 216L960 324L960 432L960 540Z" fill="#ff1654"></path><path d="M568 540L444 432L570 324L557 216L493 108L444 0L960 0L960 108L960 216L960 324L960 432L960 540Z" fill="#ff526a"></path><path d="M603 540L581 432L563 324L532 216L552 108L591 0L960 0L960 108L960 216L960 324L960 432L960 540Z" fill="#ff7581"></path><path d="M612 540L675 432L641 324L577 216L659 108L592 0L960 0L960 108L960 216L960 324L960 432L960 540Z" fill="#ff9399"></path><path d="M750 540L726 432L665 324L643 216L687 108L646 0L960 0L960 108L960 216L960 324L960 432L960 540Z" fill="#ffafb1"></path><path d="M774 540L758 432L779 324L750 216L789 108L790 0L960 0L960 108L960 216L960 324L960 432L960 540Z" fill="#ffcacb"></path><path d="M851 540L844 432L788 324L815 216L823 108L866 0L960 0L960 108L960 216L960 324L960 432L960 540Z" fill="#ffe4e5"></path><path d="M923 540L863 432L907 324L913 216L887 108L875 0L960 0L960 108L960 216L960 324L960 432L960 540Z" fill="#ffffff"></path></svg>