<?xml version="1.0" standalone="no"?>
<!DOCTYPE svg PUBLIC "-//W3C//DTD SVG 20010904//EN"
 "http://www.w3.org/TR/2001/REC-SVG-20010904/DTD/svg10.dtd">
<svg version="1.0" xmlns="http://www.w3.org/2000/svg"
 width="700.000000pt" height="700.000000pt" viewBox="0 0 700.000000 700.000000"
 preserveAspectRatio="xMidYMid meet">
<metadata>
Created by potrace 1.14, written by Peter Selinger 2001-2017
</metadata>
<g transform="translate(0.000000,700.000000) scale(0.100000,-0.100000)"
fill="#000000" stroke="none">
<path d="M339 6773 c0 -5 -2 -17 -4 -28 -2 -11 -7 -46 -10 -77 -3 -31 -7 -65
-9 -75 -2 -10 -7 -47 -10 -83 -4 -36 -9 -76 -11 -90 -2 -14 -7 -52 -10 -85 -3
-33 -8 -76 -10 -95 -2 -19 -7 -73 -10 -120 -4 -47 -8 -92 -10 -100 -2 -8 -6
-69 -10 -135 -4 -66 -9 -138 -10 -160 -23 -312 -23 -974 -1 -1175 3 -19 7 -71
11 -115 6 -80 13 -148 20 -195 2 -14 11 -72 19 -130 21 -136 22 -145 53 -280
24 -102 27 -138 29 -315 1 -110 4 -213 7 -230 3 -16 8 -50 12 -75 12 -81 15
-100 30 -168 8 -37 23 -96 34 -132 l20 -65 -50 55 c-28 30 -74 81 -102 114
l-52 58 -6 -28 c-10 -47 -8 -314 2 -374 29 -166 77 -305 137 -393 18 -25 32
-48 32 -50 0 -3 -33 2 -72 10 -145 29 -139 29 -132 -9 11 -58 84 -269 122
-352 94 -207 165 -310 321 -464 401 -396 1033 -778 1626 -981 124 -43 325
-102 393 -116 9 -2 62 -12 117 -23 100 -21 254 -44 395 -61 74 -9 548 -7 625
2 138 17 194 25 260 37 28 5 66 12 85 15 19 3 64 13 100 21 36 9 73 17 82 19
61 13 225 62 349 104 424 145 871 381 1249 660 176 130 367 300 477 423 130
147 258 400 328 647 14 51 24 95 22 98 -3 2 -41 -3 -84 -11 -44 -8 -84 -16
-89 -17 -30 -5 -31 4 -8 39 66 96 126 262 147 409 11 74 16 284 8 378 -1 15
-28 -8 -111 -95 l-110 -115 16 50 c16 56 50 208 59 270 3 23 8 52 11 65 4 14
8 123 10 243 3 172 8 235 23 295 18 72 34 146 46 217 3 17 7 39 9 50 3 19 13
82 21 135 2 14 7 52 11 85 3 33 8 67 9 76 2 9 6 52 10 95 3 43 8 93 10 109 23
179 23 947 0 1190 -2 22 -6 87 -10 145 -4 58 -8 122 -11 144 -2 21 -6 70 -9
110 -9 108 -14 167 -19 206 -3 19 -8 55 -10 80 -3 25 -10 86 -16 135 -6 50
-13 110 -16 135 -8 68 -15 100 -22 100 -8 0 -117 -18 -152 -25 -13 -2 -42 -7
-65 -11 -73 -10 -328 -71 -455 -109 -588 -172 -1201 -472 -1666 -816 -29 -21
-53 -36 -55 -35 -2 2 -28 7 -57 10 -30 4 -63 11 -74 17 -11 6 -48 15 -83 20
-58 8 -99 12 -265 24 -85 7 -477 6 -560 0 -36 -3 -96 -7 -135 -10 -88 -7 -187
-22 -219 -35 -13 -5 -48 -11 -78 -15 l-53 -5 -129 90 c-460 322 -1046 600
-1596 759 -90 26 -134 37 -262 67 -10 2 -26 6 -35 8 -45 11 -181 38 -203 41
-14 2 -54 8 -90 14 -78 13 -80 13 -81 4z"/>
</g>
</svg>
